<?xml version="1.0" encoding="UTF-8"?>
<svg id="Layer_2" data-name="Layer 2" xmlns="http://www.w3.org/2000/svg" viewBox="0 0 78.02 49.65">
  <defs>
    <style>
      .cls-1, .cls-2 {
        fill: #fff;
      }

      .cls-2 {
        font-family: Arial-BoldMT, Arial;
        font-size: 5.01px;
        font-weight: 700;
      }
    </style>
  </defs>
  <g id="Layer_1-2" data-name="Layer 1">
    <g>
      <text/>
      <path class="cls-1" d="m23.01,18.84c0-1.21-.17-2.19-.51-2.94-.34-.75-.83-1.33-1.48-1.73-.65-.39-1.54-.59-2.66-.59-1.38,0-2.47.44-3.25,1.33-.79.88-1.18,2.04-1.18,3.47,0,1.01.2,1.89.59,2.63s.88,1.29,1.48,1.63c.59.34,1.41.51,2.45.51,1.2,0,2.11-.2,2.75-.6.64-.4,1.19-1.06,1.64-1.98l-2.96-.32c-.18.28-.36.47-.52.58-.27.18-.55.26-.84.26-.47,0-.85-.2-1.14-.59-.21-.28-.34-.7-.39-1.26h6.02v-.4Zm-6.02-1.28c.05-.55.17-.96.35-1.24.29-.44.67-.66,1.15-.66.41,0,.74.14,1,.44.25.29.41.78.47,1.46h-2.97Z"/>
      <path class="cls-1" d="m31.48,14.45c-.47-.58-1.12-.87-1.95-.87-.62,0-1.14.13-1.57.39s-.85.7-1.27,1.31v-1.49h-2.8v9.16h3.01v-4.4c0-.84.11-1.41.34-1.74.22-.32.52-.48.88-.48.33,0,.59.12.77.36.18.24.28.64.28,1.22v5.04h3.02v-5.83c0-1.2-.24-2.1-.71-2.67Z"/>
      <path class="cls-1" d="m41.39,18.53c-.26-.43-.63-.77-1.12-1-.49-.24-1.23-.42-2.23-.55-.66-.1-1.09-.2-1.29-.32-.19-.11-.29-.28-.29-.5,0-.2.08-.37.23-.52.16-.14.4-.21.74-.21s.62.1.86.28c.17.14.3.35.37.65l2.85-.33c-.2-.6-.44-1.07-.74-1.42-.3-.36-.67-.61-1.12-.78-.44-.17-1.13-.25-2.07-.25-.88,0-1.59.11-2.12.32-.52.22-.94.54-1.24.98s-.45.96-.45,1.56c0,.55.14,1.04.42,1.47.28.43.62.74,1.02.92.41.18,1.14.38,2.18.59.7.14,1.13.27,1.29.36.23.14.34.34.34.59,0,.22-.08.41-.26.56-.22.2-.53.3-.93.3-.37,0-.67-.09-.89-.27-.22-.18-.39-.47-.52-.89l-2.98.33c.17.88.56,1.56,1.17,2.04.61.47,1.63.71,3.06.71,1.01,0,1.82-.14,2.4-.44.59-.3,1.02-.69,1.3-1.19.27-.5.41-1.02.41-1.55s-.13-1-.39-1.44Z"/>
      <path class="cls-1" d="m32.58,30.28c0-1.21-.17-2.19-.51-2.94-.34-.76-.83-1.33-1.48-1.73-.65-.4-1.54-.6-2.66-.6-1.39,0-2.47.45-3.25,1.33-.79.89-1.18,2.05-1.18,3.48,0,1.01.19,1.88.58,2.63.4.74.89,1.28,1.49,1.63.59.34,1.41.51,2.45.51,1.19,0,2.11-.2,2.75-.6.64-.4,1.19-1.06,1.64-1.98l-2.96-.32c-.19.28-.36.47-.52.58-.27.17-.55.26-.85.26-.46,0-.84-.2-1.13-.6-.21-.27-.34-.69-.4-1.26h6.03v-.39Zm-6.02-1.29c.05-.55.17-.96.35-1.23.28-.45.67-.67,1.14-.67.42,0,.75.15,1.01.44.25.3.4.78.46,1.46h-2.96Z"/>
      <path class="cls-1" d="m39.11,25.22v1.36c-.34-.56-.71-.96-1.11-1.2-.4-.24-.9-.37-1.51-.37-.96,0-1.73.38-2.32,1.13-.59.74-.89,1.83-.89,3.26,0,1.24.23,2.25.69,3.01.65,1.07,1.49,1.6,2.54,1.6.54,0,1.04-.14,1.5-.43.3-.18.59-.48.89-.89v1.39c0,.67-.11,1.14-.32,1.41-.22.27-.54.41-.98.41-.33,0-.61-.09-.83-.27-.15-.12-.27-.34-.34-.65l-2.92-.39c-.01.19-.01.35-.01.46,0,.93.29,1.67.88,2.22.59.55,1.67.83,3.25.83.69,0,1.3-.07,1.83-.22.54-.14.98-.37,1.32-.69.35-.33.63-.75.84-1.27.21-.52.31-1.07.31-1.64v-9.06h-2.82Zm-.57,5.9c-.26.33-.57.49-.94.49-.4,0-.71-.16-.96-.48-.24-.31-.36-.8-.36-1.47,0-.75.12-1.29.35-1.61.22-.33.53-.49.91-.49s.71.18.98.53c.27.35.4.86.4,1.53s-.13,1.17-.38,1.5Z"/>
      <path class="cls-1" d="m51.71,33.45c-.05-.25-.07-.59-.07-1.02v-4.04c0-.43-.08-.89-.23-1.36-.14-.48-.35-.84-.6-1.1-.37-.37-.82-.62-1.37-.74-.54-.12-1.27-.18-2.17-.18-.56,0-1.08.05-1.57.15-.48.1-.86.24-1.13.42-.39.24-.68.53-.89.87-.2.34-.36.8-.46,1.39l2.87.35c.12-.4.27-.67.46-.81.25-.19.62-.28,1.11-.28.39,0,.65.09.81.26.15.17.23.48.23.91-.38.17-.73.31-1.07.41-.33.11-1.06.3-2.19.56-.94.22-1.59.55-1.94,1-.35.45-.52,1.02-.52,1.72,0,.74.24,1.36.73,1.87.48.51,1.19.76,2.13.76.7,0,1.32-.13,1.85-.38.39-.19.78-.51,1.18-.95.03.27.06.46.1.58.03.13.11.31.22.54h2.82c-.16-.38-.26-.69-.3-.93Zm-3.01-2.85c0,.43-.06.79-.19,1.06-.12.27-.32.51-.61.69-.29.19-.6.29-.93.29s-.57-.09-.73-.26c-.17-.18-.25-.4-.25-.68,0-.24.09-.46.25-.65.17-.18.55-.37,1.16-.56.45-.13.88-.28,1.3-.46v.57Z"/>
      <path class="cls-1" d="m59.03,30.79c-.14.49-.34.85-.61,1.09-.26.24-.6.35-.99.35-.47,0-.86-.19-1.17-.58-.3-.39-.45-.96-.45-1.71,0-.85.15-1.48.46-1.89.3-.42.71-.63,1.2-.63.4,0,.71.1.95.3.23.2.39.49.48.88l2.83-.44c-.27-1.03-.74-1.81-1.42-2.34-.67-.54-1.64-.81-2.92-.81-.92,0-1.67.15-2.26.43-.37.18-.73.45-1.08.81-.34.37-.62.78-.82,1.24-.28.62-.42,1.41-.42,2.35s.12,1.63.34,2.17c.23.55.54,1.02.94,1.43.4.4.88.7,1.43.88s1.25.27,2.08.27,1.57-.14,2.13-.42c.56-.29,1.02-.68,1.38-1.19.36-.51.62-1.11.77-1.81l-2.85-.38Z"/>
      <path class="cls-1" d="m68.16,25.22l-1.5,6.1-1.62-6.1h-3.17l3.29,9.16c-.16.49-.34.83-.56,1.02-.22.19-.51.28-.86.28-.53,0-1.01-.08-1.45-.24l.24,2.45c.91.14,1.58.21,2.01.21,1.07,0,1.86-.28,2.38-.83.37-.39.73-1.14,1.09-2.26l3.11-9.79h-2.96Z"/>
      <path class="cls-1" d="m39.32,40.56l-.83,2.52-.87-2.52h-.74l1.22,3.41h.73l1.23-3.41h-.74Z"/>
      <path class="cls-1" d="m45.83,40.56v3.41h.69v-3.41h-.69Z"/>
      <path class="cls-1" d="m55.19,41.49c-.08-.22-.19-.4-.33-.55-.14-.15-.31-.26-.51-.32-.15-.04-.37-.06-.65-.06h-1.26v3.41h1.29c.26,0,.46-.02.61-.07.21-.07.37-.16.49-.27.16-.16.28-.36.36-.61.07-.2.11-.44.11-.72,0-.32-.04-.59-.11-.81Zm-.67,1.4c-.05.15-.11.26-.18.33-.08.07-.17.12-.28.14-.09.03-.23.04-.42.04h-.51v-2.27h.31c.28,0,.46.02.56.04.13.02.24.08.32.16.08.08.15.19.2.33.04.14.07.34.07.61s-.03.47-.07.62Z"/>
      <path class="cls-1" d="m60.81,43.4v-.93h1.71v-.58h-1.71v-.76h1.84v-.57h-2.53v3.41h2.59v-.57h-1.9Z"/>
      <path class="cls-1" d="m70.11,40.91c-.31-.31-.71-.47-1.21-.47-.28,0-.52.05-.74.14-.16.06-.3.16-.44.3-.13.14-.24.3-.32.47-.1.24-.15.53-.15.88,0,.54.15.97.45,1.28s.7.46,1.21.46.9-.15,1.2-.47c.3-.31.45-.74.45-1.29s-.15-.99-.45-1.3Zm-.53,2.18c-.17.19-.4.29-.67.29s-.51-.1-.68-.3c-.18-.2-.27-.49-.27-.88s.08-.68.26-.88c.17-.19.4-.29.69-.29s.51.1.68.29.26.48.26.87-.09.7-.27.9Z"/>
      <path class="cls-1" d="m2.52,46.57c-.13-.18-.29-.29-.49-.34-.12-.03-.4-.05-.82-.05H.11v3.41h.69v-1.28h.45c.31,0,.55-.02.71-.05.12-.03.24-.08.36-.16.12-.09.21-.2.29-.34.07-.14.11-.32.11-.53,0-.27-.06-.49-.2-.66Zm-.59.93c-.05.08-.12.14-.21.17-.09.04-.27.06-.55.06h-.37v-.97h.33c.25,0,.41.01.5.02.11.02.2.07.27.15.08.08.11.19.11.31,0,.1-.02.19-.08.26Z"/>
      <path class="cls-1" d="m9.11,46.18v1.34h-1.35v-1.34h-.69v3.41h.69v-1.49h1.35v1.49h.69v-3.41h-.69Z"/>
      <path class="cls-1" d="m17.34,46.59c-.3-.31-.71-.47-1.21-.47-.28,0-.52.05-.73.14-.16.06-.31.17-.45.3-.13.14-.24.3-.31.47-.11.24-.16.53-.16.88,0,.54.15.97.45,1.28.3.31.7.46,1.21.46s.9-.15,1.2-.46c.3-.32.45-.75.45-1.3s-.15-.99-.45-1.3Zm-.52,2.18c-.18.19-.41.29-.68.29s-.5-.1-.68-.3-.27-.49-.27-.88.09-.68.26-.88c.18-.19.4-.29.69-.29s.51.1.68.29c.17.19.26.48.26.88s-.09.69-.26.89Z"/>
      <path class="cls-1" d="m22.11,46.18v.58h1.01v2.83h.69v-2.83h1.01v-.58h-2.71Z"/>
      <path class="cls-1" d="m32,46.59c-.3-.31-.7-.47-1.21-.47-.28,0-.52.05-.73.14-.16.06-.31.17-.45.3-.13.14-.24.3-.31.47-.11.24-.16.53-.16.88,0,.54.15.97.45,1.28s.7.46,1.21.46.9-.15,1.2-.46c.3-.32.45-.75.45-1.3s-.15-.99-.45-1.3Zm-.52,2.18c-.18.19-.41.29-.68.29s-.5-.1-.68-.3c-.18-.2-.27-.49-.27-.88s.09-.68.26-.88c.18-.19.4-.29.69-.29s.51.1.68.29.26.48.26.88-.09.69-.26.89Z"/>
      <path class="cls-1" d="m38.58,47.76v.58h.79v.43c-.11.08-.23.15-.38.21-.14.05-.29.08-.43.08-.29,0-.53-.1-.71-.3s-.27-.51-.27-.91.09-.66.27-.85c.17-.19.41-.29.72-.29.19,0,.36.05.49.15.14.09.23.23.27.39l.69-.12c-.07-.32-.22-.56-.46-.74-.24-.18-.57-.27-.99-.27-.33,0-.6.06-.82.17-.29.15-.51.36-.66.64-.15.27-.22.59-.22.95,0,.32.07.63.2.9.13.28.33.5.6.65.26.15.58.22.93.22.28,0,.56-.05.84-.16.27-.1.48-.23.62-.37v-1.36h-1.48Z"/>
      <path class="cls-1" d="m47.29,48.93c-.16-.27-.3-.45-.39-.56-.1-.1-.22-.2-.37-.28.3-.05.52-.15.67-.32.15-.17.23-.38.23-.63,0-.2-.05-.38-.15-.54-.1-.16-.23-.27-.4-.33-.16-.06-.43-.09-.79-.09h-1.45v3.41h.69v-1.42h.14c.15,0,.27,0,.34.04.08.02.15.07.21.14.07.07.19.24.36.5l.5.74h.83l-.42-.66Zm-1.45-1.31h-.51v-.86h.53c.28,0,.45,0,.51.01.11.02.2.06.26.13s.09.17.09.28c0,.1-.02.19-.07.26s-.11.11-.19.14c-.09.03-.29.04-.62.04Z"/>
      <path class="cls-1" d="m54.21,46.18h-.73l-1.33,3.41h.74l.28-.77h1.36l.3.77h.75l-1.37-3.41Zm-.83,2.06l.46-1.26.47,1.26h-.93Z"/>
      <path class="cls-1" d="m62.53,46.57c-.14-.18-.3-.29-.5-.34-.12-.03-.4-.05-.82-.05h-1.1v3.41h.69v-1.28h.45c.31,0,.55-.02.71-.05.12-.03.24-.08.36-.16.12-.09.21-.2.29-.34.08-.14.11-.32.11-.53,0-.27-.06-.49-.19-.66Zm-.59.93c-.06.08-.13.14-.22.17-.09.04-.27.06-.55.06h-.37v-.97h.33c.25,0,.41.01.5.02.11.02.2.07.27.15.08.08.11.19.11.31,0,.1-.02.19-.07.26Z"/>
      <path class="cls-1" d="m69.58,46.18v1.34h-1.35v-1.34h-.69v3.41h.69v-1.49h1.35v1.49h.69v-3.41h-.69Z"/>
      <path class="cls-1" d="m77.09,46.18l-.78,1.35-.81-1.35h-.8l1.25,1.98v1.43h.68v-1.43l1.26-1.98h-.8Z"/>
      <text class="cls-2" transform="translate(74.41 43.88)"><tspan x="0" y="0">&amp;</tspan></text>
      <polygon class="cls-1" points="29.64 36.89 29.64 41.06 4.17 41.06 4.17 41.1 0 41.1 0 4.04 4.17 4.04 4.17 36.89 29.64 36.89"/>
      <polygon class="cls-1" points="77.94 0 77.94 36.81 73.77 36.81 73.77 4.17 48.57 4.17 48.57 0 77.94 0"/>
      <polygon class="cls-1" points="71.26 6.49 71.26 21.63 67.09 21.63 67.09 10.7 56.33 10.7 56.33 6.52 67.09 6.52 67.09 6.49 71.26 6.49"/>
      <polygon class="cls-1" points="21.93 30.25 21.93 34.43 10.89 34.43 10.89 34.46 6.71 34.46 6.71 7.2 10.89 7.2 10.89 30.25 21.93 30.25"/>
    </g>
  </g>
</svg>